<svg width="215" height="109" viewBox="0 0 215 109" fill="none" xmlns="http://www.w3.org/2000/svg">
<g clip-path="url(#clip0_711_24)">
<path d="M34.1899 85.8828C34.1899 85.8828 37.5155 91.7641 61.4645 94.4414C85.4136 97.1187 97.4966 106.045 112.719 108.723C127.938 111.4 146.739 93.7729 163.075 96.4503C179.415 99.1276 199.107 88.9281 200.675 85.8828H34.1899Z" fill="#150F26"/>
<path d="M206.149 25.9507H147.201C154.587 25.9507 156.043 23.2734 160.405 21.825C160.615 21.7575 160.822 21.6967 161.028 21.6461C165.112 20.6163 168.482 22.9358 171.093 22.8277C173.832 22.7163 176.856 19.8162 179.989 18.8135C181.052 18.4725 182.156 18.5805 183.284 18.8472C185.485 19.3672 187.795 20.4813 190.138 20.039C192.18 19.6541 192.333 18.8303 193.152 18.2598C197.599 20.694 201.937 23.2734 206.149 25.9507Z" fill="url(#paint0_linear_711_24)"/>
<path d="M69.8257 26.5933H19.1709C20.8235 23.2036 23.045 19.9625 25.9438 17.0522C25.9879 17.0083 26.0353 16.9611 26.0827 16.9138C27.2849 16.6674 28.5717 16.4952 29.9297 16.4411C37.9624 16.1069 39.6624 22.13 39.6624 22.13C39.6624 22.13 41.7654 19.3413 45.5718 20.6783C49.3782 22.0186 48.0338 23.6898 51.0545 24.5845C51.4473 24.6993 51.8605 24.7297 52.2905 24.6925C55.1724 24.4461 58.8095 21.2995 62.0199 22.4676C65.7179 23.8046 63.3067 26.5933 69.8257 26.5933Z" fill="url(#paint1_linear_711_24)"/>
<path d="M213.855 87.0236H25.4562C24.8263 87.0236 24.3149 86.5138 24.3149 85.8858C24.3149 85.2578 24.8263 84.748 25.4562 84.748H213.855C214.485 84.748 214.997 85.2578 214.997 85.8858C215 86.5138 214.489 87.0236 213.855 87.0236Z" fill="#201934"/>
<path opacity="0.25" d="M123.288 20.8435C119.928 21.7011 116.142 25.3372 113.687 25.8673C110.592 26.5358 107.012 24.9726 103.541 24.1049C102.488 23.8416 101.665 23.7031 101.032 23.6424C105.116 22.6126 108.485 24.9321 111.096 24.824C113.836 24.7126 116.86 21.8125 119.993 20.8098C121.056 20.4688 122.157 20.5768 123.288 20.8435Z" fill="white"/>
<path opacity="0.25" d="M52.2935 24.6931C49.2727 26.2664 47.8707 22.6842 45.2361 21.5127C42.2153 20.1656 40.0886 24.3656 39.1946 23.6397C38.3006 22.9138 37.9077 19.7908 34.4942 18.1737C32.5571 17.2553 28.8151 17.0561 25.9434 17.0561C25.9874 17.0123 26.0348 16.965 26.0822 16.9177C27.2844 16.6713 28.5713 16.4991 29.9292 16.4451C37.9619 16.1108 39.6619 22.1339 39.6619 22.1339C39.6619 22.1339 41.7649 19.3452 45.5713 20.6822C49.3777 22.0225 48.0333 23.6937 51.054 24.5884C51.4502 24.7032 51.8634 24.7302 52.2935 24.6931Z" fill="white"/>
<path d="M156.004 99.574C156.004 99.574 143.827 102.251 140.691 106.38C139.157 108.399 145.242 108.095 150.424 105.877C155.828 103.565 160.282 99.2904 156.004 99.574Z" fill="#150F26"/>
<path d="M67.675 98.7926C67.675 98.7926 72.4161 98.6812 76.5916 100.298C80.7671 101.916 81.6611 106.882 77.5229 107.493C73.3812 108.108 63.9533 102.604 64.485 100.352C64.8778 98.6981 67.675 98.7926 67.675 98.7926Z" fill="#150F26"/>
<path d="M46.0491 71.8784L43.3339 84.8515C43 84.5 42.7135 85 39.818 84.8515H39.1915C39.1915 84.8515 40.2109 64.9775 36.8447 60.2204C40.0686 62.4656 41.6061 71.4462 41.6061 71.4462L41.1049 72.1113H41.6061C41.6061 72.1113 42.4053 73.634 42.7135 75.8724C44.7758 65.1868 42.771 60.0246 42.7135 59.8828C42.7947 59.9773 44.3965 61.9524 45.3583 65.1733C46.3438 68.4752 45.9746 70.5515 45.9746 70.5515L45.1754 71.8716H46.0491V71.8784Z" fill="#150F26"/>
<path d="M127.257 80.9879C127.257 80.9879 128.134 80.208 128.777 79.3741C128.892 79.2255 128.997 79.0769 129.092 78.9284L129.488 79.4112L129.353 78.6516C129.353 78.6516 132.082 77.6995 133.068 75.0762C132.468 77.9628 131.314 80.0999 129.956 81.0959C129.36 81.5314 128.726 81.7475 128.083 81.7137C125.966 81.6023 127.257 80.9879 127.257 80.9879Z" fill="#F3475C"/>
<g opacity="0.25">
<path d="M133.068 75.0762C132.841 75.8257 132.553 76.5549 132.224 77.2639C131.893 77.9729 131.513 78.6617 131.06 79.3032C130.606 79.9412 130.074 80.5388 129.42 80.9912C128.777 81.4504 127.974 81.7137 127.168 81.6699C127.124 81.6665 127.091 81.6293 127.094 81.5888C127.097 81.5483 127.135 81.5112 127.175 81.5146H127.179C127.944 81.5686 128.716 81.3322 129.353 80.8933C129.996 80.4612 130.531 79.8805 130.995 79.2559C131.456 78.6279 131.845 77.9493 132.191 77.2471C132.526 76.5448 132.827 75.8189 133.068 75.0762Z" fill="white"/>
</g>
<path opacity="0.25" d="M127.257 80.9888C127.257 80.9888 128.134 80.2089 128.777 79.375C129.052 80.1785 129.614 80.7862 129.952 81.0968C129.356 81.5324 128.723 81.7485 128.08 81.7147C125.966 81.6033 127.257 80.9888 127.257 80.9888Z" fill="black"/>
<path d="M106.051 75.7719C106.051 75.7719 99.7418 69.8805 100.764 61.9938C101.411 65.6434 104.08 70.0021 104.08 70.0021L103.748 70.9879L104.933 70.7583C104.933 70.7583 106.427 61.7608 103.067 57.4292C107.598 62.0815 107.548 69.0095 107.548 69.0095L106.694 70.2857L107.548 70.657C107.548 70.657 106.555 74.0197 109.505 72.7266C112.455 71.4336 114.321 60.2685 111.655 57.4258C114.856 60.1672 114.321 69.58 114.321 69.894C114.321 70.208 112.935 71.4707 112.935 71.4707L114.002 72.2303C113.995 72.2371 113.325 78.6113 106.051 75.7719Z" fill="#150F26"/>
<path d="M134.941 84.1583C134.941 84.1583 132.75 82.1124 133.105 79.3709C133.329 80.6403 134.257 82.1529 134.257 82.1529L134.142 82.4939L134.551 82.4128C134.551 82.4128 135.07 79.2865 133.905 77.7807C135.479 79.3979 135.462 81.8051 135.462 81.8051L135.164 82.2474L135.462 82.3757C135.462 82.3757 135.117 83.5439 136.143 83.0948C137.169 82.6458 137.816 78.7666 136.892 77.7773C138.002 78.7294 137.819 82.0009 137.819 82.109C137.819 82.2204 137.339 82.6559 137.339 82.6559L137.708 82.9193C137.704 82.9294 137.471 85.1442 134.941 84.1583Z" fill="#150F26"/>
<path d="M126.563 81.1506L124.781 81.2755C126.065 80.1242 125.875 79.0236 125.682 78.5171C125.614 78.3348 125.543 78.2302 125.543 78.2302L126.383 78.0951L125.912 77.457C125.912 77.457 127.436 75.7014 128.009 71.0254C129.81 74.1754 129.106 77.008 128.158 78.8716C127.433 80.293 126.563 81.1506 126.563 81.1506Z" fill="#FFCA51"/>
<g opacity="0.25">
<path d="M128.009 71.0254C128.202 71.8897 128.307 72.7743 128.354 73.6622C128.398 74.5467 128.378 75.4381 128.266 76.3226C128.144 77.2038 127.931 78.0715 127.602 78.9054C127.253 79.7292 126.762 80.4888 126.16 81.1573C126.129 81.1911 126.082 81.1911 126.048 81.1641C126.014 81.1337 126.014 81.0864 126.041 81.0527L126.044 81.0493C126.644 80.4078 127.135 79.6684 127.49 78.8615C127.826 78.0478 128.053 77.1903 128.185 76.3159C128.307 75.4414 128.34 74.5535 128.31 73.6689C128.279 72.7776 128.188 71.8931 128.009 71.0254Z" fill="white"/>
</g>
<path opacity="0.25" d="M126.563 81.151L124.781 81.2759C126.065 80.1246 125.875 79.024 125.682 78.5176C126.617 79.0949 127.575 79.0105 128.158 78.8687C127.433 80.2935 126.563 81.151 126.563 81.151Z" fill="black"/>
<path d="M138.168 84.51H109.295L113.921 80.7658C113.921 80.7658 120.081 77.6057 122.651 78.2641C125.221 78.9224 124.812 81.0764 124.812 81.0764C124.812 81.0764 124.967 80.9042 125.228 80.7017C125.801 80.2594 126.884 79.655 127.981 80.31C129.546 81.2385 129.299 82.4674 129.289 82.5248C129.339 82.4742 130.277 81.566 131.039 81.8563C131.822 82.1534 132.126 83.011 132.126 83.011C132.126 83.011 133.125 81.6132 133.986 82.1264C134.842 82.6396 135.327 83.6828 135.327 83.6828C135.327 83.6828 136.715 82.3256 138.168 84.51Z" fill="#982245"/>
<path opacity="0.25" d="M132.597 84.51H109.298L113.924 80.7658C113.924 80.7658 120.084 77.6057 122.655 78.2641C125.225 78.9224 124.815 81.0764 124.815 81.0764C124.815 81.0764 124.971 80.9042 125.232 80.7017C125.286 81.1676 125.293 81.6504 125.225 82.123C125.225 82.123 126.529 81.6335 127.389 82.3391C128.246 83.0481 127.985 83.6795 127.985 83.6795C127.985 83.6795 129.143 83.011 130.447 83.6795C130.894 83.9124 131.713 84.2129 132.597 84.51Z" fill="black"/>
<path d="M80.2695 64.2491V32.6582H68.2306V32.7662L53.7433 56.0011L47.4038 66.1702L48.1184 73.5066H68.2272V84.5096H80.2661V73.5066H85.5524V64.2491H80.2695ZM68.2306 64.2491H58.8738L67.4822 49.5053L68.234 48.2967V64.2491H68.2306Z" fill="url(#paint2_linear_711_24)"/>
<path d="M122.201 36.9691C119.034 33.1472 114.567 31.2363 108.807 31.2363C103.043 31.2363 98.5868 33.1371 95.4306 36.9353C92.2744 40.7335 90.6963 46.1354 90.6963 53.1376V62.6112C90.6963 69.5661 92.2812 74.9545 95.4475 78.7797C98.6138 82.6015 103.091 84.5125 108.878 84.5125C114.618 84.5125 119.065 82.6151 122.221 78.8135C125.377 75.0153 126.955 69.6134 126.955 62.6112V53.1748C126.955 46.1928 125.37 40.7909 122.201 36.9691ZM102.772 50.8216C102.844 47.3542 103.352 44.7681 104.29 43.0597C105.231 41.348 106.738 40.4938 108.807 40.4938C110.927 40.4938 112.475 41.4155 113.453 43.2555C114.429 45.0955 114.916 47.8775 114.916 51.6048V64.4242C114.893 68.1515 114.395 70.8862 113.416 72.6317C112.441 74.3772 110.927 75.2516 108.878 75.2516C106.758 75.2516 105.211 74.3535 104.235 72.5642C103.314 70.8727 102.827 68.2595 102.776 64.7213C102.772 64.5086 102.772 64.2925 102.772 64.0731V50.8216Z" fill="url(#paint3_linear_711_24)"/>
<path d="M164.996 64.2491V32.6582H152.96V32.7662L132.137 66.1668L132.851 73.5032H152.96V84.5062H164.996V73.5032H170.282V64.2491H164.996ZM152.957 64.2491H143.597L152.205 49.5053L152.957 48.2967V64.2491Z" fill="url(#paint4_linear_711_24)"/>
<path opacity="0.25" d="M78.0275 32.6582C76.4156 34.7109 70.8922 33.9783 69.6528 34.11C68.2406 34.2585 58.4571 51.4399 57.1127 53.6209C56.2424 55.0355 54.7117 55.704 53.7432 56.0011L68.2305 32.7662V32.6582H78.0275Z" fill="white"/>
<path opacity="0.25" d="M164.995 32.6577V56.5745C161.914 54.0221 163.61 35.1763 163.123 34.5517C162.601 33.8832 156.184 34.3289 154.992 33.9575C154.199 33.711 153.559 33.0628 153.224 32.6543H164.995V32.6577Z" fill="white"/>
<path opacity="0.25" d="M111.347 78.2166C101.648 78.6623 102.769 64.7254 102.769 64.7254L102.772 64.7186C102.823 68.2569 103.311 70.8734 104.232 72.5615C105.207 74.3543 106.755 75.2489 108.875 75.2489C110.92 75.2489 112.434 74.3745 113.413 72.629C114.388 70.8835 114.889 68.1488 114.913 64.4215V51.6022C114.913 47.8749 114.425 45.0929 113.45 43.2529C112.471 41.4129 110.924 40.4912 108.804 40.4912C108.804 40.4912 114.808 39.7619 117.253 48.6109C119.705 57.4666 121.046 77.771 111.347 78.2166Z" fill="black"/>
<path d="M98.5902 36.9285C98.5902 36.9285 94.5603 34.0283 94.1133 29.4907C97.0223 30.3078 98.5902 33.8291 98.5902 33.8291C98.5902 33.8291 97.8452 30.5947 98.5902 28.3867C100.754 31.4996 100.158 34.0283 98.5902 36.9285Z" fill="url(#paint5_linear_711_24)"/>
<path opacity="0.25" d="M179.066 63.1979C179.066 63.1979 179.083 63.2925 178.951 63.4275C179.561 59.6597 176.066 57.8703 172.862 55.2133C169.567 52.4819 170.952 50.4157 170.278 47.627C169.879 45.976 168.192 43.7849 166.882 42.2656C169.605 43.7106 171.555 47.34 171.623 50.3144C171.704 53.7615 176.425 56.5435 178.155 58.397C179.886 60.2505 179.066 63.1979 179.066 63.1979Z" fill="#201934"/>
<path d="M192.89 81.2461V82.3602C192.697 82.34 192.216 82.3771 191.793 82.4143C191.532 82.4379 191.292 82.4649 191.153 82.4784L191.051 81.5331L191.492 81.4655L192.89 81.2461Z" fill="url(#paint6_linear_711_24)"/>
<path d="M178.995 62.6975L178.122 63.4909C177.996 63.6057 178.044 63.8083 178.203 63.8589L178.941 64.0919L180.648 65.9555C180.723 66.0366 180.851 66.0433 180.936 65.969L181.217 65.7124C181.298 65.6382 181.305 65.5099 181.23 65.4255L179.524 63.5618L179.358 62.8056C179.321 62.6469 179.117 62.5861 178.995 62.6975Z" fill="#2F1829"/>
<path d="M185.711 63.8816C185.491 64.172 185.196 64.5535 184.895 64.9316C184.783 65.0734 184.668 65.2152 184.556 65.3503C184.089 65.9242 183.662 66.4003 183.53 66.4239C183.195 66.4779 181.305 65.4043 181.028 65.4043C180.746 65.4043 180.12 65.8635 179.951 65.823C179.781 65.7791 178.86 64.9316 178.887 64.7223C178.914 64.513 179.741 63.7871 180.147 63.6757C180.259 63.6453 180.509 63.6791 180.814 63.7466C180.814 63.7466 180.831 63.75 180.862 63.7567C181.654 63.9289 182.795 64.2868 182.975 64.199C183.063 64.1551 183.252 63.858 183.456 63.4934C183.527 63.3651 183.601 63.2267 183.672 63.0882C183.764 62.9161 183.852 62.7405 183.933 62.5852C184.014 62.4231 184.086 62.278 184.14 62.1699C184.312 62.4231 184.59 62.7641 184.868 63.0781C185.21 63.4698 185.555 63.8107 185.711 63.8816Z" fill="url(#paint7_linear_711_24)"/>
<path d="M193.405 66.104C193.405 66.7185 193.395 67.3093 193.357 67.7887C193.208 69.6996 193.059 71.2594 192.406 71.2966C191.752 71.3337 191.623 66.1276 191.657 65.8103C191.664 65.7495 191.671 65.6178 191.674 65.4457C191.691 64.8785 191.695 63.8622 191.705 63.4267C191.705 63.3187 191.708 63.2444 191.711 63.2241L191.833 63.1465L193.259 62.2383C193.259 62.2383 193.344 63.4706 193.381 64.8751C193.388 65.0675 193.391 65.26 193.395 65.4558C193.401 65.6752 193.405 65.8913 193.405 66.104Z" fill="url(#paint8_linear_711_24)"/>
<path opacity="0.25" d="M193.405 66.1045C193.073 66.3914 192.541 66.7594 191.993 66.7696C191.099 66.7898 192.406 64.9599 192.704 64.9194C192.819 64.9025 193.093 64.889 193.381 64.8789C193.388 65.0713 193.391 65.2638 193.395 65.4596C193.401 65.6757 193.405 65.8918 193.405 66.1045Z" fill="black"/>
<path d="M193.398 65.4597C193.033 65.5914 192.535 65.6656 191.908 65.534C191.82 65.5137 191.742 65.4867 191.678 65.4496C191.129 65.1423 191.353 64.2409 191.708 63.4306C191.749 63.3361 191.793 63.2415 191.837 63.1504L193.263 62.2422C193.263 62.2422 193.371 63.8324 193.398 65.4597Z" fill="#2F1829"/>
<path d="M190.374 55.1692C190.357 55.3617 190.256 55.6014 190.11 55.8411C189.927 56.1449 189.677 56.4454 189.433 56.6412C189.246 56.7932 189.067 56.8809 188.928 56.8607C188.471 56.7965 187.902 56.0605 187.892 55.9221C187.885 55.7837 188.383 55.7297 188.319 55.3212C188.254 54.9126 187.993 54.8384 187.797 54.9126C187.601 54.9869 187.364 55.4123 187.374 55.8141C187.242 55.7972 186.994 55.3009 186.534 55.0207C186.405 54.943 186.263 54.8789 186.104 54.8485C185.901 54.808 185.67 54.8215 185.406 54.9093C185.284 53.4305 186.182 52.7823 186.869 53.0422C186.869 53.0422 186.619 52.5493 186.253 52.448C187.093 52.5696 187.296 53.2752 187.296 53.2752C187.296 53.2752 187.53 52.2792 188.593 52.1509C189.656 52.0226 189.863 53.417 189.863 53.417C189.863 53.417 190.083 52.7316 189.988 52.3265C190.178 52.8768 189.947 53.7782 189.947 53.7782C189.947 53.7782 190.462 53.9167 190.581 54.5784C190.151 54.2442 190.124 54.2779 190.124 54.2779C190.124 54.2779 190.428 54.5446 190.374 55.1692Z" fill="#2F172B"/>
<path d="M189.432 56.6364C189.348 56.8693 189.27 57.0854 189.236 57.163C189.148 57.3589 188.061 58.2704 187.279 57.2204C186.622 56.3393 186.54 55.3163 186.53 55.0124C186.987 55.2926 187.238 55.7889 187.37 55.8058C187.36 55.4041 187.597 54.9787 187.793 54.9044C187.99 54.8301 188.251 54.9044 188.315 55.3129C188.379 55.7214 187.881 55.7754 187.888 55.9139C187.898 56.0523 188.467 56.7883 188.925 56.8524C189.067 56.8794 189.246 56.7883 189.432 56.6364Z" fill="url(#paint9_linear_711_24)"/>
<path d="M189.974 52.2887C189.954 52.2346 189.927 52.1806 189.896 52.1367C189.933 52.1772 189.957 52.2279 189.974 52.2887Z" fill="#2F172B"/>
<path d="M193.747 62.0556C193.639 62.2616 193.52 62.4405 193.401 62.5992C193.364 62.6498 193.327 62.6971 193.293 62.7444C192.958 63.163 192.667 63.3757 192.667 63.3757C192.667 63.3757 192.67 63.3892 192.673 63.4129C192.68 63.4432 192.687 63.4939 192.701 63.558C192.724 63.71 192.765 63.9463 192.805 64.2265C192.812 64.2738 192.819 64.3211 192.826 64.3717C192.843 64.5034 192.86 64.6452 192.877 64.7903C192.887 64.8747 192.894 64.9558 192.904 65.0402C192.907 65.0874 192.91 65.1381 192.917 65.1854C192.938 65.4116 192.948 65.6411 192.951 65.8538C192.951 65.9011 192.951 65.9517 192.951 65.999C192.951 66.2556 192.931 66.4886 192.887 66.6675C192.873 66.7215 192.86 66.7688 192.843 66.8127C192.822 66.8667 192.799 66.9106 192.768 66.9477C192.734 66.9916 192.68 67.0288 192.602 67.0591C192.108 67.2786 190.797 67.2921 189.504 67.2212C188.383 67.1604 187.269 67.0423 186.71 66.9443C186.544 66.9173 186.412 66.8701 186.303 66.8093C186.229 66.7688 186.171 66.7215 186.121 66.6641C186.09 66.6337 186.063 66.6 186.043 66.5628C185.941 66.4042 185.907 66.2117 185.914 65.9923C185.914 65.945 185.917 65.8977 185.921 65.8471C185.938 65.6479 185.985 65.4352 186.036 65.2124C186.039 65.1989 186.043 65.1887 186.046 65.1752C186.056 65.128 186.07 65.0807 186.083 65.03C186.141 64.8072 186.205 64.581 186.256 64.3616C186.263 64.3278 186.273 64.294 186.28 64.2603C186.283 64.2468 186.287 64.2333 186.29 64.2164C186.347 63.9463 186.385 63.7268 186.408 63.5479C186.415 63.4973 186.422 63.4466 186.425 63.4027C186.469 62.9773 186.429 62.8457 186.429 62.8457C186.429 62.8457 186.314 63.1293 186.171 63.4027C186.144 63.4534 186.117 63.5006 186.087 63.5479C185.978 63.7302 185.867 63.8788 185.775 63.8855C185.762 63.8855 185.745 63.8821 185.721 63.872C185.636 63.8315 185.494 63.7133 185.325 63.5479C185.281 63.504 185.23 63.4534 185.179 63.4027C185.081 63.3014 184.976 63.1867 184.874 63.0719C184.776 62.9638 184.678 62.849 184.587 62.7343C184.546 62.687 184.505 62.6363 184.468 62.5891C184.343 62.4338 184.231 62.2886 184.146 62.1603C184.082 62.0658 184.031 61.9814 184.001 61.9172C183.98 61.8733 183.97 61.8429 183.967 61.8193C183.967 61.8092 183.967 61.7923 183.97 61.7754C183.987 61.664 184.065 61.4209 184.19 61.1069C184.211 61.063 184.228 61.0124 184.248 60.9618C184.333 60.7592 184.431 60.5296 184.543 60.2933C184.566 60.246 184.59 60.1987 184.614 60.1481C184.719 59.9286 184.834 59.7024 184.959 59.4796C184.986 59.4323 185.013 59.3817 185.04 59.3344C185.172 59.1015 185.311 58.8753 185.457 58.666C185.491 58.6187 185.525 58.568 185.558 58.5208C185.745 58.2608 185.941 58.0312 186.134 57.8523C186.192 57.7983 186.253 57.7476 186.31 57.7071C186.344 57.6835 186.375 57.6598 186.408 57.6396C186.673 57.4708 186.944 57.3391 187.204 57.2412C188.112 56.8968 188.887 56.9306 188.887 56.9306C189.341 56.9306 189.785 57.0184 190.208 57.1872C190.523 57.3155 190.828 57.4877 191.119 57.7037C191.183 57.751 191.244 57.7983 191.305 57.8489C191.539 58.0414 191.766 58.2642 191.979 58.5174C192.02 58.5647 192.06 58.6119 192.098 58.6626C192.264 58.8685 192.423 59.0914 192.575 59.3311C192.606 59.3783 192.636 59.4256 192.663 59.4762C192.792 59.6889 192.91 59.9118 193.026 60.1447C193.049 60.192 193.073 60.2393 193.093 60.2899C193.195 60.506 193.29 60.7254 193.381 60.9584C193.398 61.0056 193.418 61.0529 193.435 61.1036C193.517 61.3196 193.591 61.5425 193.666 61.772C193.679 61.8159 193.693 61.8632 193.71 61.9105C193.71 61.9105 193.71 61.9138 193.71 61.9172C193.723 61.9712 193.737 62.0151 193.747 62.0556Z" fill="#FFCA51"/>
<path opacity="0.25" d="M191.302 57.862H186.127C186.185 57.808 186.246 57.7573 186.304 57.7168H191.116C191.177 57.7641 191.241 57.8113 191.302 57.862Z" fill="white"/>
<path opacity="0.25" d="M192.094 58.6764H185.447C185.481 58.6292 185.515 58.5785 185.548 58.5312H191.976C192.017 58.5785 192.057 58.6258 192.094 58.6764Z" fill="white"/>
<path opacity="0.25" d="M192.663 59.4889H184.952C184.979 59.4417 185.006 59.391 185.033 59.3438H192.575C192.602 59.391 192.633 59.4383 192.663 59.4889Z" fill="white"/>
<path opacity="0.25" d="M193.093 60.3034H184.532C184.556 60.2561 184.58 60.2088 184.603 60.1582H193.022C193.049 60.2055 193.073 60.2561 193.093 60.3034Z" fill="white"/>
<path opacity="0.25" d="M193.439 61.1159H184.18C184.2 61.072 184.217 61.0213 184.238 60.9707H193.381C193.398 61.018 193.418 61.0686 193.439 61.1159Z" fill="white"/>
<path opacity="0.25" d="M193.71 61.9309H183.99C183.97 61.887 183.96 61.8566 183.957 61.8329C183.957 61.8228 183.957 61.8059 183.96 61.7891H193.666C193.679 61.833 193.693 61.8802 193.71 61.9275V61.9309Z" fill="white"/>
<path opacity="0.25" d="M193.405 62.5996C193.367 62.6503 193.33 62.6975 193.296 62.7448H184.576C184.535 62.6975 184.495 62.6469 184.458 62.5996H193.405Z" fill="white"/>
<path opacity="0.25" d="M185.172 63.4121H186.161C186.134 63.4628 186.107 63.51 186.077 63.5573H185.315C185.271 63.5134 185.22 63.4628 185.172 63.4121Z" fill="white"/>
<path opacity="0.25" d="M192.7 63.5573H186.398C186.405 63.5066 186.411 63.456 186.415 63.4121H192.673C192.68 63.4425 192.687 63.4931 192.7 63.5573Z" fill="white"/>
<path opacity="0.25" d="M192.822 64.3717H186.246C186.252 64.338 186.263 64.3042 186.269 64.2704C186.273 64.2569 186.276 64.2434 186.279 64.2266H192.805C192.809 64.2738 192.815 64.3211 192.822 64.3717Z" fill="white"/>
<path opacity="0.25" d="M192.91 65.1842H186.036C186.046 65.137 186.059 65.0897 186.073 65.0391H192.897C192.903 65.0863 192.907 65.137 192.91 65.1842Z" fill="white"/>
<path opacity="0.25" d="M192.944 65.8535C192.944 65.9008 192.944 65.9514 192.944 65.9987H185.904C185.904 65.9514 185.907 65.9042 185.911 65.8535H192.944Z" fill="white"/>
<path opacity="0.25" d="M192.88 66.668C192.866 66.722 192.853 66.7693 192.836 66.8131H186.293C186.219 66.7726 186.161 66.7254 186.11 66.668H192.88Z" fill="white"/>
<path d="M193.032 80.3147C192.724 80.5106 190.655 80.7334 190.655 80.7334L190.591 80.3586L190.208 78.1101C190.208 78.1067 190.208 78.1033 190.208 78.1L189.311 72.7825L188.403 79.4201L188.135 81.3749C188.135 81.3749 185.589 81.5133 185.589 80.9022C185.589 80.8279 185.596 80.5545 185.609 80.1324C185.684 77.4247 185.968 68.569 186.036 66.5703C186.151 66.756 186.361 66.8911 186.703 66.9484C186.733 66.9518 186.767 66.9586 186.798 66.9653C188.098 67.1713 191.701 67.4616 192.599 67.0632C192.639 67.3874 192.677 67.9005 192.711 68.5454C192.849 71.1248 192.951 75.7569 193.002 78.3768C193.019 79.545 193.032 80.3147 193.032 80.3147Z" fill="#2F1829"/>
<path opacity="0.25" d="M190.208 78.0995L189.311 72.782C189.311 72.782 189.554 70.6449 189.646 70.4018C189.741 70.1621 190.394 70.3478 190.672 70.1621C190.821 70.5166 189.89 70.9623 189.812 72.0764C189.761 72.8799 190.042 76.2662 190.208 78.0995Z" fill="black"/>
<path opacity="0.25" d="M186.534 67.7207C186.534 67.7207 186.449 68.9328 187.441 69.5202" stroke="white" stroke-width="0.4635" stroke-miterlimit="10" stroke-linecap="round" stroke-linejoin="round"/>
<g opacity="0.25">
<path d="M186.747 69.3457L186.733 69.5787" stroke="white" stroke-width="0.4635" stroke-linecap="round" stroke-linejoin="round"/>
<path d="M186.713 70.0488L186.235 80.0896" stroke="white" stroke-width="0.4635" stroke-linecap="round" stroke-linejoin="round" stroke-dasharray="1.39 1.39"/>
<path d="M186.225 80.3223L186.212 80.5586" stroke="white" stroke-width="0.4635" stroke-linecap="round" stroke-linejoin="round"/>
</g>
<path opacity="0.25" d="M190.225 70.4961L191.119 80.0541" stroke="white" stroke-width="0.4635" stroke-miterlimit="10" stroke-linecap="round" stroke-linejoin="round" stroke-dasharray="1.39 1.39"/>
<path opacity="0.25" d="M190.98 67.9134C190.98 67.9134 190.879 69.0815 190.98 69.3043C191.082 69.5272 191.519 69.7196 191.613 69.7669C191.708 69.8141 192.132 69.4394 192.152 69.1963C192.172 68.9532 192.199 67.9606 192.199 67.9606C192.199 67.9606 191.471 67.8188 190.98 67.9134Z" stroke="white" stroke-width="0.4635" stroke-miterlimit="10" stroke-linecap="round" stroke-linejoin="round"/>
<path opacity="0.25" d="M193.032 80.3138C192.724 80.5096 190.655 80.7325 190.655 80.7325L190.591 80.3577C191.194 80.0167 192.382 79.2638 192.999 78.3691C193.019 79.5441 193.032 80.3138 193.032 80.3138Z" fill="black"/>
<path d="M193.154 81.2054L192.894 81.2459L191.055 81.5329L190.926 81.5531C190.655 81.597 190.405 81.4113 190.361 81.1446L190.354 81.1041C190.313 80.8374 190.496 80.5841 190.764 80.5436L192.995 80.1959C193.266 80.152 193.517 80.3377 193.557 80.6044L193.564 80.6449C193.608 80.9083 193.422 81.1615 193.154 81.2054Z" fill="#4C3146"/>
<path opacity="0.25" d="M188.403 79.4238L188.135 81.3786C188.135 81.3786 185.589 81.5171 185.589 80.906C185.589 80.8317 185.596 80.5582 185.609 80.1362C186.205 80.0856 187.594 79.9303 188.403 79.4238Z" fill="black"/>
<path d="M188.362 81.503L188.359 81.5469C188.335 81.817 188.095 82.0162 187.821 81.9926H187.807L185.863 81.8136L185.572 81.7866C185.301 81.763 185.098 81.5233 185.125 81.2498L185.128 81.2093C185.152 80.9392 185.393 80.74 185.667 80.7636L187.915 80.9696C188.19 80.9932 188.39 81.2295 188.362 81.503Z" fill="#4C3146"/>
<path opacity="0.25" d="M192.707 68.5415C189.605 68.9568 187.499 67.5354 186.794 66.9648C188.095 67.1708 191.698 67.4611 192.595 67.0628C192.633 67.3835 192.67 67.8967 192.707 68.5415Z" fill="black"/>
<path opacity="0.25" d="M186.27 64.27C186.51 63.1525 186.419 62.8554 186.419 62.8554C186.419 62.8554 186.009 63.8784 185.765 63.8953C185.653 63.9054 185.257 63.5205 184.864 63.0782C185.203 62.9938 185.724 62.8216 185.995 62.5178C186.415 62.0451 186.371 60.0228 186.534 60.0059C186.696 59.9924 187.069 63.7433 186.029 65.2153C186.104 64.9047 186.202 64.5772 186.27 64.27Z" fill="black"/>
<path opacity="0.25" d="M193.747 62.0562C193.28 62.9306 192.667 63.3763 192.667 63.3763C192.667 63.3763 192.115 60.4795 191.949 60.1993C191.817 59.9765 192.003 59.7435 192.308 60.7294C192.541 61.4924 193.161 62.0731 193.71 61.9279C193.723 61.9684 193.737 62.0123 193.747 62.0562Z" fill="black"/>
<path opacity="0.25" d="M192.758 66.9484C192.724 66.9923 192.67 67.0294 192.592 67.0598C192.098 67.2793 190.787 67.2928 189.494 67.2219C190.381 67.1037 192.504 66.6344 192.873 64.791C192.968 65.6486 193.009 66.6412 192.758 66.9484Z" fill="black"/>
<path opacity="0.25" d="M190.201 57.2009C190.086 57.3393 189.893 57.4001 189.571 57.3258C188.938 57.1772 188.098 57.4743 187.658 57.4102C187.431 57.3764 187.285 57.3089 187.194 57.2549C188.101 56.9105 188.877 56.9443 188.877 56.9443C189.334 56.9409 189.778 57.0287 190.201 57.2009Z" fill="black"/>
<path d="M185.711 63.8822C185.491 64.1725 185.196 64.554 184.895 64.9322C184.265 64.5439 183.74 63.8991 183.452 63.4973C183.71 63.0348 183.991 62.4676 184.136 62.1738C184.309 62.427 184.587 62.768 184.864 63.082C185.21 63.4703 185.555 63.8113 185.711 63.8822Z" fill="#2F1829"/>
<path opacity="0.25" d="M185.711 63.8822C185.491 64.1725 185.196 64.554 184.895 64.9322C184.783 65.074 184.668 65.2158 184.556 65.3508C184.59 64.1725 184.177 63.1124 183.93 62.5891C184.011 62.427 184.082 62.2819 184.136 62.1738C184.309 62.427 184.587 62.768 184.864 63.082C185.21 63.4703 185.555 63.8113 185.711 63.8822Z" fill="black"/>
<path opacity="0.25" d="M183.669 63.0918C183.665 63.4395 183.347 63.9291 183.252 64.081C183.14 64.2532 183.232 65.023 183.127 64.9318C183.022 64.8407 182.978 64.4659 182.839 64.341C182.71 64.2262 181.153 63.8346 180.858 63.7603C181.65 63.9325 182.792 64.2903 182.971 64.2026C183.059 64.1587 183.249 63.8616 183.452 63.4969C183.523 63.3686 183.598 63.2302 183.669 63.0918Z" fill="white"/>
<path opacity="0.25" d="M190.11 55.8362C189.927 56.1401 189.676 56.4405 189.432 56.6364C189.246 56.7883 189.067 56.8761 188.928 56.8558C188.471 56.7917 187.902 56.0557 187.892 55.9172C187.885 55.7788 188.383 55.7248 188.318 55.3163C188.254 54.9077 187.993 54.8335 187.797 54.9077C187.6 54.982 187.363 55.4074 187.373 55.8092C187.241 55.7923 186.994 55.296 186.534 55.0158C186.405 54.9381 186.263 54.874 186.104 54.8436C186.354 54.8098 186.635 54.8031 186.821 54.8841C187.241 55.0597 187.255 55.2285 187.255 55.2285C187.255 55.2285 187.316 54.6241 187.986 54.4992C188.555 54.3946 189.009 55.9409 190.11 55.8362Z" fill="black"/>
<path d="M188.135 84.5072H183.686C183.686 84.5072 183.642 84.3688 183.642 84.1898C183.642 83.9569 183.716 83.6598 184.072 83.518C184.197 83.4673 184.332 83.4066 184.475 83.3391C185.033 83.0757 185.633 82.728 185.731 82.5254C185.731 82.5254 185.765 82.5423 185.819 82.5659C185.931 82.6165 186.141 82.7009 186.344 82.755C186.449 82.782 186.554 82.8022 186.645 82.8022C186.896 82.809 187.377 82.6739 187.682 82.6368C187.82 82.6165 187.922 82.6199 187.949 82.6638C188.01 82.7651 188.081 83.6902 188.115 84.1865C188.125 84.3823 188.135 84.5072 188.135 84.5072Z" fill="#1F3247"/>
<path d="M187.807 81.9856C187.77 82.1915 187.722 82.4414 187.678 82.6406C187.458 82.6676 187.14 82.7486 186.889 82.7857C186.795 82.8026 186.71 82.8094 186.642 82.806C186.368 82.7992 185.985 82.6439 185.816 82.5697C185.816 82.3468 185.843 82.0193 185.863 81.8066L186.625 81.8775L187.807 81.9856Z" fill="url(#paint10_linear_711_24)"/>
<path d="M193.469 84.5068H190.783C190.783 84.5068 190.736 84.3819 190.743 84.1895C190.746 84.0646 190.773 83.9093 190.851 83.7438C191.044 83.3151 190.943 82.6196 191.037 82.4879C191.037 82.4879 191.081 82.4845 191.156 82.4744C191.515 82.4339 192.578 82.3225 192.893 82.3528C192.92 82.3562 192.941 82.3596 192.958 82.3663C193.137 82.4237 193.344 83.5919 193.432 84.1895C193.449 84.3414 193.466 84.4596 193.469 84.5068Z" fill="#1F3247"/>
<path opacity="0.25" d="M188.115 84.1895C188.129 84.3785 188.135 84.5068 188.135 84.5068H183.686C183.686 84.5068 183.642 84.3684 183.642 84.1895H188.115Z" fill="black"/>
<path opacity="0.25" d="M193.469 84.5068H190.783C190.783 84.5068 190.736 84.3819 190.743 84.1895H193.428C193.449 84.3414 193.466 84.4595 193.469 84.5068Z" fill="black"/>
<path d="M186.341 82.7589C185.927 83.0324 185.159 83.5151 184.898 83.5185C184.708 83.5219 184.566 83.4307 184.471 83.343C185.03 83.0796 185.629 82.7319 185.728 82.5293C185.728 82.5293 185.761 82.5462 185.816 82.5698C185.927 82.6205 186.137 82.7049 186.341 82.7589Z" fill="#122230"/>
<path opacity="0.25" d="M187.807 81.985C187.77 82.1909 187.722 82.4408 187.678 82.64C187.458 82.667 187.14 82.748 186.889 82.7851L186.628 81.877L187.807 81.985Z" fill="black"/>
<path opacity="0.25" d="M192.89 81.2461V82.3602C192.697 82.34 192.216 82.3771 191.793 82.4143L191.492 81.4655L192.89 81.2461Z" fill="black"/>
<path d="M41.853 63.7604L41.0199 62.9231C40.9014 62.8049 40.6982 62.8589 40.6542 63.021L40.451 63.7671L38.6562 65.5464C38.5749 65.624 38.5749 65.7523 38.6562 65.8333L38.9237 66.1001C39.0016 66.1811 39.1303 66.1811 39.2116 66.1001L41.0064 64.3208L41.7548 64.1216C41.9173 64.0811 41.9715 63.8785 41.853 63.7604Z" fill="#2F1829"/>
<path d="M33.1906 54.8848C33.1906 54.8848 33.1703 55.2156 33.1161 55.6377C33.045 56.1778 32.9061 56.87 32.6657 57.2177C32.6589 57.2312 32.6488 57.2413 32.642 57.2548C32.283 57.7275 31.5956 57.6127 31.2468 57.0253C31.4533 56.772 31.5448 56.4446 31.4059 56.3163C31.1215 56.0462 31.196 55.2865 31.6057 55.3777C32.0155 55.4722 32.0798 56.5695 32.2288 56.5391C32.3474 56.5155 32.94 55.5566 33.1906 54.8848Z" fill="url(#paint11_linear_711_24)"/>
<path d="M33.3025 54.4114C33.3025 54.5296 33.2585 54.695 33.1908 54.8841C33.1501 54.9921 33.0993 55.1137 33.0452 55.2318C32.7607 55.8463 32.3306 56.5181 32.2324 56.5384C32.0834 56.5654 32.0157 55.4682 31.6093 55.377C31.1995 55.2858 31.1216 56.0455 31.4095 56.3156C31.5483 56.4439 31.4569 56.7714 31.2503 57.0246C31.0302 57.298 30.6712 57.4905 30.3123 57.2744C29.6214 56.8558 29.5029 54.2358 29.5097 54.0299C29.5097 54.0299 29.4961 53.8577 29.5537 53.6281C29.635 53.3074 29.8517 52.8719 30.4444 52.6153C31.4569 52.1764 33.3025 52.2675 33.3025 54.4114Z" fill="#2F1829"/>
<path d="M38.6427 65.353C38.6393 65.38 38.6326 65.407 38.6258 65.4307C38.5953 65.5488 38.5581 65.6332 38.5174 65.6467C38.4768 65.6602 38.2736 65.6434 37.979 65.6028C37.5658 65.5488 36.9766 65.4543 36.4212 65.3496C35.7574 65.2213 35.1445 65.0829 34.9345 64.9749C34.7517 64.8803 34.4841 64.5292 34.22 64.1207C34.1523 64.0127 34.0811 63.9012 34.0134 63.7898C33.6849 63.253 33.3971 62.7061 33.3226 62.5609C33.309 62.5373 33.3023 62.5238 33.3023 62.5238C33.3023 62.5238 33.3023 62.5373 33.3023 62.5609C33.2921 62.7061 33.2481 63.2496 33.0618 63.7898C33.0212 63.9012 32.9772 64.0127 32.9264 64.1207C32.8823 64.2186 32.8281 64.3131 32.774 64.4009C32.5979 64.6744 32.6351 65.012 32.7503 65.353C32.7638 65.3969 32.7807 65.4374 32.7943 65.4779C32.8214 65.5455 32.8485 65.6164 32.8789 65.6839C32.9297 65.8054 32.9873 65.9202 33.0415 66.0316C33.204 66.3692 33.3463 66.663 33.2989 66.8352C33.2921 66.8588 33.2752 66.8858 33.2447 66.9128C33.2244 66.9331 33.2007 66.9533 33.1668 66.977C33.0517 67.058 32.8722 67.1491 32.6385 67.247C31.3144 67.7974 28.3512 68.4287 27.0644 67.247C27.0441 67.2268 27.0204 67.2065 27 67.1863C26.9967 67.1829 26.9899 67.1761 26.9865 67.1728C26.9052 67.0884 26.8714 67.004 26.8747 66.9162C26.8747 66.7946 26.9425 66.6663 27.0407 66.5178C27.1897 66.295 27.4064 66.0282 27.5893 65.6839C27.6435 65.5792 27.6943 65.4712 27.7383 65.353C27.806 65.1741 27.8602 64.9749 27.8873 64.7554C27.9144 64.5427 27.9347 64.33 27.9516 64.1241C27.9618 64.0127 27.9686 63.9012 27.972 63.7932C27.9957 63.3644 28.0024 62.9559 27.9957 62.5643C27.9957 62.4529 27.9923 62.3415 27.9889 62.2334C27.9787 61.7979 27.9584 61.386 27.9449 61.0045C27.9415 60.8931 27.9381 60.7817 27.9347 60.6736C27.9212 60.2246 27.9212 59.8127 27.9584 59.4447C27.972 59.3299 27.9855 59.2185 28.0092 59.1138C28.104 58.6175 28.2971 58.2056 28.6696 57.8815C28.6831 57.868 28.6967 57.8579 28.7102 57.8444C28.8423 57.7363 28.971 57.6351 29.0929 57.5507C29.2317 57.4494 29.3604 57.365 29.4789 57.2941C30.2781 56.8146 30.6845 56.8822 30.6845 56.8822C30.6845 56.8822 30.9283 56.8991 31.2975 56.9598C31.653 57.024 32.1272 57.1286 32.5979 57.3109C32.6554 57.3312 32.7096 57.3548 32.7672 57.3785C32.8891 57.4291 33.0076 57.4865 33.1228 57.5507C33.204 57.5945 33.2785 57.6384 33.3564 57.6823C33.4513 57.7465 33.5461 57.8106 33.6341 57.8781C33.8576 58.0503 34.0507 58.2563 34.1963 58.4994C34.308 58.6817 34.4198 58.8876 34.5315 59.1104C34.5857 59.2185 34.6399 59.3265 34.6941 59.4413C34.877 59.8296 35.0531 60.255 35.219 60.6702C35.263 60.7817 35.307 60.8931 35.3477 61.0011C35.5204 61.4434 35.6694 61.8688 35.7981 62.23C35.8387 62.3482 35.876 62.4596 35.9098 62.5609C36.0317 62.9188 36.1164 63.1821 36.1469 63.2868C36.1909 63.4252 36.4788 63.5569 36.8445 63.675C36.963 63.7156 37.0917 63.7527 37.2238 63.7898C37.4778 63.8607 37.7419 63.9283 37.9756 63.989C38.1551 64.0363 38.3142 64.0802 38.4361 64.1207C38.5648 64.1646 38.6495 64.1984 38.6664 64.2321C38.6732 64.2456 38.68 64.2625 38.6867 64.2828C38.7375 64.482 38.7138 65.012 38.6427 65.353Z" fill="#F5B539"/>
<g opacity="0.25">
<path d="M33.1028 57.6226C33.2044 57.6766 33.2992 57.734 33.3906 57.7948H28.8832C28.9645 57.7306 29.039 57.6732 29.1135 57.6226H33.1028ZM33.1231 57.5449H29.0898C28.9679 57.6293 28.8426 57.7306 28.7071 57.8386C28.6936 57.8488 28.68 57.8623 28.6665 57.8758H33.6311C33.4719 57.7475 33.3026 57.6395 33.1231 57.5449Z" fill="white"/>
<path d="M34.4808 59.1865C34.5079 59.2439 34.5384 59.3013 34.5655 59.3621H28.0431C28.0499 59.2979 28.0601 59.2405 28.0702 59.1865H34.4808ZM34.5282 59.1055H28.0059C27.9856 59.2135 27.9686 59.3215 27.9551 59.4363H34.6908C34.6366 59.3249 34.5824 59.2135 34.5282 59.1055Z" fill="white"/>
<path d="M35.1651 60.7456C35.1888 60.803 35.2125 60.8638 35.2329 60.9212H28.0197C28.0163 60.8638 28.0163 60.803 28.0129 60.7456H35.1651ZM35.2159 60.668H27.9316C27.935 60.776 27.9384 60.8874 27.9418 60.9988H35.3446C35.304 60.8908 35.26 60.7794 35.2159 60.668Z" fill="white"/>
<path d="M35.7409 62.3081L35.7815 62.433L35.7984 62.4837H28.0739C28.0739 62.4263 28.0705 62.3655 28.0705 62.3081H35.7409ZM35.7951 62.2305H27.9893C27.9926 62.3385 27.996 62.4499 27.996 62.5613H35.9102C35.8763 62.4567 35.8357 62.3453 35.7951 62.2305Z" fill="white"/>
<path d="M32.9506 63.8687C32.9269 63.9328 32.9032 63.9902 32.8795 64.0442H28.0368C28.0402 63.9868 28.047 63.9261 28.047 63.8687H32.9506ZM33.0623 63.791H27.9725C27.9691 63.8991 27.9589 64.0105 27.9521 64.1219H32.9303C32.9777 64.0138 33.0217 63.9024 33.0623 63.791Z" fill="white"/>
<path d="M37.2139 63.8687C37.4103 63.9227 37.6135 63.9767 37.7997 64.0273L37.8675 64.0442H34.2643C34.227 63.9868 34.1898 63.9294 34.1525 63.8687H37.2139ZM37.224 63.791H34.0137C34.0814 63.9024 34.1525 64.0138 34.2202 64.1219H38.433C38.3111 64.0814 38.1519 64.0375 37.9724 63.9902C37.7422 63.9294 37.478 63.8653 37.224 63.791Z" fill="white"/>
<path d="M32.6928 65.4312C32.6995 65.448 32.7029 65.4616 32.7097 65.4784L32.7199 65.5054C32.7199 65.5088 32.7232 65.5122 32.7266 65.5156C32.7368 65.546 32.7503 65.5763 32.7639 65.6067H27.718C27.7451 65.5493 27.7722 65.4919 27.7925 65.4312H32.6928ZM32.7503 65.3535H27.7384C27.6943 65.4717 27.6435 65.5831 27.5894 65.6844H32.8824C32.8519 65.6169 32.8214 65.5493 32.7977 65.4784C32.7774 65.4345 32.7639 65.394 32.7503 65.3535Z" fill="white"/>
<path d="M38.5447 65.4312C38.5142 65.5426 38.4905 65.5696 38.4939 65.573C38.4871 65.573 38.477 65.573 38.4668 65.573C38.3889 65.573 38.2298 65.5561 37.9893 65.5257C37.7929 65.5021 37.5694 65.4683 37.329 65.4312H38.5447ZM38.6429 65.3535H36.4214C36.9768 65.4582 37.566 65.5527 37.9792 65.6067C38.2061 65.6371 38.3821 65.654 38.4668 65.654C38.4905 65.654 38.5108 65.654 38.5176 65.6506C38.5616 65.6371 38.5955 65.5527 38.626 65.4345C38.6327 65.4075 38.6395 65.3805 38.6429 65.3535Z" fill="white"/>
<path d="M32.9978 66.9951C32.8996 67.0491 32.7743 67.1099 32.6286 67.1707H27.0985C27.085 67.1571 27.0714 67.147 27.0579 67.1335L27.0444 67.12C27.0037 67.0795 26.9766 67.039 26.9631 66.9951H32.9978ZM33.2484 66.9141H26.8784C26.8784 67.0018 26.9089 67.0862 26.9902 67.1707C26.9936 67.174 27.0003 67.1808 27.0037 67.1842C27.024 67.2044 27.0477 67.228 27.0681 67.2449H32.6456C32.8792 67.1504 33.0587 67.0559 33.1739 66.9748C33.2043 66.9546 33.228 66.9343 33.2484 66.9141Z" fill="white"/>
</g>
<path d="M33.7325 81.5453C33.7121 81.6095 33.685 81.6635 33.6512 81.7175C33.2787 82.3556 32.2627 82.4197 31.8868 82.2982C31.836 82.2847 31.7988 82.2644 31.7751 82.2442C31.5516 82.0484 31.3552 80.4312 30.153 71.2547C30.153 71.2783 30.153 71.302 30.153 71.3256V71.3324C30.1326 72.6356 29.8583 74.9516 29.5671 77.0854C29.2488 79.4386 28.9135 81.5723 28.8695 81.9066C28.8559 82.0146 28.8051 82.1159 28.7306 82.2003C28.392 82.5852 27.542 82.6797 27.0374 82.0686C26.9968 82.018 26.9595 81.964 26.9223 81.9066C27.1322 80.232 27.2169 75.0158 26.8782 71.9232C26.7496 70.7618 26.7496 69.7591 26.7936 68.9623C26.8376 68.1317 26.9392 67.524 27.0069 67.1864C28.2802 68.4761 31.4161 67.7806 32.7233 67.2168C32.9197 67.1324 33.0721 67.0514 33.1737 66.9805C33.5327 68.4491 33.3972 72.8078 33.7325 81.5453Z" fill="#2F1829"/>
<path opacity="0.25" d="M32.7638 57.3721C30.5999 57.4396 29.9836 60.7921 29.9836 60.7921L29.4756 57.2843C30.2748 56.8049 30.6812 56.8724 30.6812 56.8724C30.6812 56.8724 31.7581 56.9433 32.7638 57.3721Z" fill="black"/>
<path d="M36.2047 84.4833C36.2047 84.4833 32.5304 84.4833 31.8971 84.4833C31.8802 84.3651 31.8734 84.1795 31.8667 83.9634C31.8667 83.8891 31.8667 83.8115 31.8667 83.7304C31.8633 83.2206 31.8802 82.6197 31.8904 82.2955C31.992 82.3293 32.1376 82.3462 32.3069 82.3462C32.6422 82.3428 33.0621 82.2584 33.3702 82.0288C33.4854 81.9444 33.5836 81.8431 33.6581 81.7148C33.9189 82.282 34.4641 82.6669 34.9754 82.9438C35.4258 83.1902 35.8491 83.3523 36.0218 83.4772C36.1878 83.5954 36.2487 83.7811 36.2657 83.96C36.286 84.2301 36.2047 84.4833 36.2047 84.4833Z" fill="#1F3247"/>
<path d="M28.7781 83.9629C28.7645 84.287 28.7442 84.4829 28.7442 84.4829H26.2822C26.3127 84.3073 26.35 84.1317 26.394 83.9629C26.6006 83.1121 26.902 82.3761 27.034 82.0723C27.1932 82.2647 27.3896 82.3896 27.5928 82.4572C27.8298 82.5314 28.0804 82.528 28.2938 82.4673C28.4699 82.4166 28.6223 82.3255 28.7273 82.2073C28.7984 82.9062 28.795 83.5443 28.7781 83.9629Z" fill="#1F3247"/>
<path d="M40.9423 64.783C40.8949 65.0531 39.9264 65.9005 39.6351 65.8161C39.5877 65.8026 39.5369 65.7789 39.4895 65.7519C39.2863 65.6405 39.0628 65.4548 38.626 65.4312C38.7106 65.1037 38.7411 64.496 38.6869 64.2867C38.7411 64.2597 38.8055 64.2293 38.88 64.1989C39.2017 64.0537 39.6555 63.8714 39.8451 63.9018C40.1499 63.9457 40.9863 64.5129 40.9423 64.783Z" fill="url(#paint12_linear_711_24)"/>
<path opacity="0.25" d="M33.3023 66.8367C33.2921 66.8772 33.2447 66.9245 33.1702 66.9785C32.3947 67.5289 28.4664 68.67 27.0035 67.1879C27.0001 67.1845 26.9933 67.1777 26.9899 67.1744C26.7969 66.9752 26.8714 66.776 27.0407 66.5194C27.2541 66.6882 27.63 66.8705 28.2937 66.9785C29.6009 67.1912 31.9206 66.8401 33.0449 66.0332C33.2075 66.3742 33.3497 66.6646 33.3023 66.8367Z" fill="black"/>
<path opacity="0.25" d="M38.6258 65.4319C38.5953 65.55 38.5581 65.6344 38.5174 65.6479C38.4768 65.6614 38.2736 65.6446 37.979 65.604C38.1822 64.8309 38.0602 64.2536 37.9756 63.9902C38.3413 64.0881 38.6292 64.1692 38.6664 64.2333C38.6732 64.2468 38.68 64.2637 38.6867 64.284C38.7409 64.4967 38.7104 65.1044 38.6258 65.4319Z" fill="black"/>
<path opacity="0.25" d="M32.7945 65.4782C32.2967 64.992 32.51 64.6037 32.7945 63.6382C33.079 62.6726 32.51 62.2607 32.4186 61.1837C32.3238 60.1067 32.4389 59.4922 33.1094 58.7832C32.3069 60.8832 33.3025 62.5206 33.3025 62.5206C33.3025 62.5206 33.2584 63.655 32.7708 64.3978C32.5744 64.705 32.6489 65.0933 32.7945 65.4782Z" fill="black"/>
<path opacity="0.25" d="M33.0452 55.2314C32.7607 55.8458 32.3306 56.5177 32.2324 56.5379C32.0834 56.5649 32.0157 55.4677 31.6093 55.3765C31.1995 55.2854 31.1216 56.045 31.4095 56.3151C31.5483 56.4434 31.4569 56.7709 31.2503 57.0241C31.0302 57.2976 30.6712 57.49 30.3123 57.2739C29.6214 56.8553 29.5029 54.2354 29.5097 54.0294C29.5097 54.0294 29.4961 53.8572 29.5537 53.6277C29.8957 53.6108 30.6577 53.6547 30.8406 54.34C31.0167 55.0018 31.0167 55.3293 31.0031 55.4508C31.0404 55.2584 31.1995 54.6844 31.8328 54.8127C32.2121 54.887 32.6354 55.1537 33.0452 55.2314Z" fill="black"/>
<path d="M30.251 54.3095C30.251 54.3095 29.9699 53.7254 29.0758 53.8908C28.1818 54.0596 27.7754 55.2008 28.1818 57.0577C28.1954 55.4135 28.4324 55.0354 28.4324 55.0354C28.4324 55.0354 28.0531 56.0381 28.5442 58.3001C29.0352 60.5588 29.3129 62.7499 28.0972 63.7122C30.5185 62.3448 30.6573 60.7411 30.5185 58.7897C30.3763 56.8315 30.8097 55.1164 30.251 54.3095Z" fill="#2F1829"/>
<path opacity="0.25" d="M31.7039 56.2955C31.687 56.4339 32.1577 57.0889 32.6657 57.2138C32.6589 57.2273 32.6488 57.2374 32.642 57.2509C32.6284 57.2712 32.6149 57.2881 32.598 57.305C32.1272 57.1226 31.6531 57.018 31.2976 56.9538C31.4703 56.7141 31.5346 56.4305 31.4059 56.3124C31.1215 56.0423 31.196 55.2826 31.6057 55.3738C32.0155 55.4683 32.0798 56.5656 32.2288 56.5352C32.344 56.5149 32.9366 55.5561 33.1872 54.8809C33.1872 54.8809 33.1669 55.2117 33.1127 55.6337C32.9772 55.8802 32.6792 56.39 32.449 56.5892C32.1408 56.8559 32.0223 56.5251 31.9376 56.3259C31.8563 56.1233 31.7243 56.1368 31.7039 56.2955Z" fill="black"/>
<path opacity="0.25" d="M27.4948 68.9282C27.4948 68.9282 27.4271 70.1909 27.5862 70.5285C27.7454 70.8695 28.2466 71.1059 28.2466 71.1059C28.2466 71.1059 28.8663 70.8459 29.0255 70.4745C29.205 69.725 29.1677 68.8303 29.1677 68.8303C29.1677 68.8303 27.935 68.5096 27.4948 68.9282Z" stroke="white" stroke-width="0.4635" stroke-miterlimit="10"/>
<path opacity="0.25" d="M32.7944 67.916C32.7944 67.916 32.8452 68.9559 31.9512 69.4758" stroke="white" stroke-width="0.4635" stroke-miterlimit="10" stroke-linecap="round" stroke-linejoin="round"/>
<path opacity="0.25" d="M32.5811 68.8105L33.3024 81.3227" stroke="white" stroke-width="0.4635" stroke-miterlimit="10" stroke-linecap="round" stroke-linejoin="round"/>
<path opacity="0.25" d="M30.1497 71.3222V71.3289C30.1294 72.6321 29.8551 74.9482 29.5639 77.0819C29.5198 74.5903 29.1676 71.5011 29.2828 70.998C29.6553 71.3559 30.1497 71.3222 30.1497 71.3222Z" fill="black"/>
<path opacity="0.25" d="M29.4758 71.6426L28.4463 81.8522" stroke="white" stroke-width="0.4635" stroke-miterlimit="10" stroke-linecap="round" stroke-linejoin="round"/>
<path opacity="0.25" d="M32.7198 67.214C32.1102 67.8116 30.2206 69.2937 26.7935 68.9595C26.8375 68.1289 26.9391 67.5212 27.0068 67.1836C28.2767 68.4767 31.4126 67.7812 32.7198 67.214Z" fill="black"/>
<path opacity="0.25" d="M26.394 83.9629H28.7781C28.7645 84.287 28.7442 84.4828 28.7442 84.4828H26.2822C26.3127 84.3039 26.35 84.1317 26.394 83.9629Z" fill="black"/>
<path opacity="0.25" d="M36.2048 84.4828C36.2048 84.4828 32.5304 84.4828 31.8972 84.4828C31.8802 84.3647 31.8735 84.179 31.8667 83.9629H36.2623C36.286 84.2296 36.2048 84.4828 36.2048 84.4828Z" fill="black"/>
<path opacity="0.25" d="M34.9719 82.9477C34.1964 83.3258 33.6376 82.5493 33.3667 82.0327C33.4818 81.9483 33.58 81.847 33.6545 81.7188C33.9187 82.2826 34.4605 82.6675 34.9719 82.9477Z" fill="white"/>
<path opacity="0.25" d="M28.2937 82.4633C28.2124 83.601 27.8162 83.6449 27.6062 83.5267C27.4166 83.4187 27.5453 82.6895 27.5927 82.4531C27.8297 82.5274 28.0803 82.524 28.2937 82.4633Z" fill="black"/>
<path opacity="0.25" d="M31.8667 83.7298C31.8633 83.22 31.8802 82.619 31.8904 82.2949C31.992 82.3287 32.1376 82.3456 32.3069 82.3456C32.3543 82.7169 32.3983 83.5576 31.8667 83.7298Z" fill="black"/>
<path opacity="0.25" d="M38.626 65.4315C38.7106 65.104 38.7411 64.4963 38.6869 64.287C38.7411 64.26 38.8055 64.2296 38.88 64.1992C39.0967 64.4929 39.4523 65.077 39.4929 65.7556C39.2863 65.6408 39.0628 65.4552 38.626 65.4315Z" fill="black"/>
<path opacity="0.25" d="M36.8479 63.6753C36.1604 63.7428 35.71 64.4484 35.6491 64.3066C35.5813 64.1378 35.9572 63.79 35.9098 63.5672C35.8624 63.3444 34.8261 60.6671 34.2504 59.3571C33.9016 58.5637 33.563 57.9965 33.353 57.6758C33.4478 57.7399 33.5427 57.8041 33.6307 57.8716C33.8542 58.0438 34.0473 58.2497 34.1929 58.4928C34.3046 58.6751 34.4164 58.8811 34.5281 59.1039C34.5823 59.2119 34.6365 59.32 34.6907 59.4348C34.8736 59.823 35.0496 60.2484 35.2156 60.6637C35.2596 60.7751 35.3036 60.8865 35.3443 60.9946C35.517 61.4368 35.666 61.8622 35.7947 62.2235C35.8353 62.3417 35.8726 62.4531 35.9064 62.5544C36.0283 62.9122 36.113 63.1756 36.1435 63.2802C36.1909 63.422 36.4787 63.5537 36.8479 63.6753Z" fill="white"/>
<path d="M200.499 85.1717C200.276 85.0029 193.225 66.0389 201.339 55.2148C200.222 62.8585 200.835 69.1045 200.835 69.1045L199.771 70.1646L200.946 70.4988C200.946 70.4988 201.739 81.1068 202.121 82.3323C201.258 74.4051 203.395 69.7729 203.395 69.7729C203.395 69.7729 203.019 75.3977 203.747 77.4673L203.185 78.2134L203.747 78.0986C203.747 78.0986 203.354 81.5018 203.747 82.5248C203.747 82.5248 208.278 69.02 206.151 63.0915C208.949 67.4265 208.166 74.6616 208.166 74.6616L207.438 74.9486L207.885 75.2727C207.885 75.2727 206.71 82.9907 204.025 85.1649" fill="#150F26"/>
<path d="M152.998 84.9358C152.998 84.9358 146.716 84.3686 144.189 86.1276C145.385 84.4395 150.143 83.6529 150.143 83.6529L150.495 83.9162V83.6529C150.495 83.6529 151.304 83.2342 152.49 83.0789C146.76 81.9479 144.027 83.035 144.027 83.035C144.027 83.035 145.087 82.1673 146.834 81.6575C148.585 81.1477 149.682 81.3469 149.682 81.3469L150.376 81.7723L150.38 81.3165L156.469 83.0992" fill="#150F26"/>
<path d="M177.187 83.2735C177.187 83.2735 176.516 79.033 179.984 76.0957C179.947 79.5158 178.985 82.4564 177.187 83.2735Z" stroke="#1F3247" stroke-width="0.9271" stroke-miterlimit="10"/>
<path d="M153.807 80.4812L153.123 82.1254C152.662 80.4677 151.588 80.147 151.047 80.093C150.854 80.0727 150.725 80.0896 150.725 80.0896L150.979 79.2793L150.197 79.4143C150.197 79.4143 149.299 77.2705 145.354 74.6776C148.984 74.4716 151.216 76.3623 152.466 78.0402C153.424 79.3232 153.807 80.4812 153.807 80.4812Z" fill="#FFCA51"/>
<g opacity="0.25">
<path d="M145.357 74.6816C146.221 74.8943 147.061 75.1982 147.877 75.5459C148.693 75.9004 149.482 76.3191 150.227 76.8086C150.965 77.3083 151.649 77.889 152.249 78.5507C152.835 79.2294 153.299 80.0059 153.627 80.8398C153.644 80.8803 153.624 80.9242 153.583 80.9411C153.543 80.958 153.498 80.9377 153.482 80.8972L153.478 80.8938C153.167 80.0734 152.723 79.307 152.157 78.6284C151.575 77.9667 150.904 77.3826 150.18 76.8728C149.448 76.3731 148.666 75.9477 147.86 75.5797C147.054 75.2218 146.218 74.9078 145.357 74.6816Z" fill="white"/>
</g>
<path opacity="0.25" d="M153.807 80.482L153.123 82.1262C152.662 80.4685 151.589 80.1478 151.047 80.0937C151.982 79.5164 152.334 78.6217 152.466 78.041C153.424 79.324 153.807 80.482 153.807 80.482Z" fill="black"/>
<path d="M179.984 72.6016C173.492 77.919 171.816 80.5626 171.816 80.5626L170.658 80.0595C170.658 80.0595 170.658 80.0967 170.661 80.1575C170.668 80.4444 170.688 81.2817 170.658 81.5619C170.634 81.8017 168.318 83.0441 167 83.7328C166.472 84.0097 166.106 84.1954 166.106 84.1954L165.022 83.115L165.131 82.9023L165.693 81.8084C165.693 81.8084 167.173 79.6814 169.706 77.47C172.232 75.262 175.798 72.9696 179.984 72.6016Z" fill="#FFADAE"/>
<g opacity="0.25">
<path d="M165.68 83.7902C166.56 82.5107 167.532 81.302 168.558 80.144C169.591 78.9893 170.681 77.8853 171.857 76.8758C173.028 75.863 174.285 74.9413 175.639 74.185C176.99 73.4287 178.453 72.8548 179.984 72.6016C178.457 72.8683 176.997 73.4524 175.656 74.2188C174.312 74.9851 173.069 75.9136 171.907 76.9332C170.742 77.9494 169.666 79.0602 168.646 80.2216C167.634 81.3864 166.672 82.6018 165.812 83.878V83.8814C165.788 83.9185 165.737 83.9253 165.703 83.9016C165.663 83.8746 165.656 83.824 165.68 83.7902Z" fill="white"/>
</g>
<path opacity="0.25" d="M170.658 81.5587C170.634 81.7984 168.318 83.0409 167 83.7296C166.282 83.4629 165.625 83.1523 165.131 82.8991L165.693 81.8052C165.693 81.8052 167.173 79.6782 169.706 77.4668C169.858 78.2501 170.146 79.3406 170.654 80.1542C170.668 80.4446 170.688 81.2819 170.658 81.5587Z" fill="black"/>
<path d="M175.9 69.1035C171.254 72.9557 169.13 76.1766 168.253 77.8208C167.85 78.5737 167.711 78.9957 167.711 78.9957L166.702 78.6243L167.112 79.5528L165.636 82.5272L164.989 83.8304V78.6446C165.185 78.2631 165.459 77.7634 165.808 77.1895C166.458 76.1125 167.373 74.7823 168.538 73.5027C169.066 72.922 169.645 72.3548 170.278 71.8281C171.85 70.5181 173.729 69.458 175.9 69.1035Z" fill="#F3475C"/>
<g opacity="0.25">
<path d="M164.921 80.7119C165.402 79.4222 166.032 78.2 166.746 77.0285C167.464 75.8603 168.291 74.7597 169.208 73.7434C170.116 72.7171 171.159 71.8123 172.28 71.0256L173.133 70.4517L174.034 69.9588C174.186 69.8777 174.332 69.7899 174.484 69.7157L174.958 69.5131L175.903 69.1113L174.962 69.5232L174.491 69.7292C174.339 69.8068 174.193 69.8946 174.041 69.979L173.147 70.4821L172.3 71.0628C171.193 71.8595 170.16 72.7711 169.266 73.8008C168.358 74.8204 167.549 75.9245 166.844 77.0926C166.147 78.2608 165.531 79.4897 165.07 80.7659V80.7693C165.056 80.8098 165.009 80.8301 164.968 80.8165C164.924 80.7963 164.904 80.7524 164.921 80.7119Z" fill="white"/>
</g>
<path opacity="0.25" d="M167.711 78.9957L166.702 78.6243L167.112 79.5528L165.636 82.5272L164.989 82.6184V78.6446C165.185 78.2631 165.459 77.7634 165.808 77.1895C166.269 77.5642 167.078 78.0031 168.25 77.8208C167.85 78.5771 167.711 78.9957 167.711 78.9957Z" fill="black"/>
<path d="M181.813 84.5097H164.996V82.1565C164.996 82.1565 165.243 81.586 165.923 81.245C166.133 81.1369 166.384 81.0525 166.679 81.0154C167.938 80.8466 168.358 81.8797 168.358 81.8797C168.358 81.8797 168.667 80.985 169.926 80.8736C171.149 80.7655 171.894 82.6663 171.938 82.7811C171.928 82.6832 171.843 81.6265 172.778 81.5589C173.756 81.488 173.756 82.7845 173.756 82.7845C173.756 82.7845 174.539 81.9371 175.544 81.9911C176.554 82.0451 176.774 83.0242 176.774 83.0242C176.774 83.0242 177.332 82.1869 178.565 82.4806C179.798 82.7744 179.937 84.5097 181.813 84.5097Z" fill="#982245"/>
<path opacity="0.25" d="M176.56 84.5089H164.996V82.1557C164.996 82.1557 165.243 81.5851 165.923 81.2441C166.428 81.2813 167.315 81.4433 167.688 82.1253C168.22 83.1044 168.257 84.0227 168.257 84.0227C168.257 84.0227 169.384 82.4089 170.285 82.6858C171.186 82.9626 171.66 84.0227 171.66 84.0227C171.66 84.0227 172.608 83.02 173.408 83.3543C173.807 83.5264 175.236 84.0396 176.56 84.5089Z" fill="black"/>
<path d="M143.366 85.1716C143.302 85.1243 141.321 79.79 143.603 76.748C143.288 78.8987 143.461 80.6543 143.461 80.6543L143.163 80.9514L143.495 81.0459C143.495 81.0459 143.718 84.0271 143.827 84.3748C143.583 82.1466 144.186 80.8434 144.186 80.8434C144.186 80.8434 144.081 82.4268 144.284 83.0075L144.125 83.2168L144.284 83.1864C144.284 83.1864 144.172 84.1453 144.284 84.4322C144.284 84.4322 145.557 80.634 144.961 78.9662C145.747 80.185 145.527 82.2208 145.527 82.2208L145.323 82.3019L145.449 82.393C145.449 82.393 145.117 84.5639 144.362 85.175" fill="#2F1829"/>
<path d="M66.5916 83.4351C66.5916 83.4351 56.6828 76.7706 50.8784 77.3884C54.4105 75.6733 63.0324 78.7017 63.0324 78.7017L63.3745 79.4614L63.6183 79.0259C63.6183 79.0259 65.342 79.0697 67.4552 79.8902C58.9788 72.7968 53.442 72.1081 53.442 72.1081C53.442 72.1081 55.9954 71.6286 59.3683 72.3782C62.7412 73.1277 64.3803 74.4579 64.3803 74.4579L65.1456 75.7982L65.5689 75.042L74.0418 83.5499" fill="#150F26"/>
<path d="M58.8707 84.2208C58.8707 84.2208 54.685 83.3295 52.0571 80.2031C56.534 80.6488 58.4677 82.266 58.8707 84.2208Z" stroke="#1F3247" stroke-width="0.9271" stroke-miterlimit="10"/>
<path d="M72.8702 65.4297C72.5112 73.7992 73.368 76.8074 73.368 76.8074L72.22 77.3307C72.22 77.3307 72.2471 77.3544 72.2945 77.3949C72.5146 77.5806 73.1546 78.1241 73.3409 78.3335C73.5034 78.5124 72.8871 81.058 72.5248 82.4963C72.3791 83.0702 72.2742 83.4686 72.2742 83.4686L70.7435 83.553L70.6588 83.3302L70.2186 82.1823C70.2186 82.1823 69.6158 79.6637 69.653 76.3044C69.6869 72.9619 70.354 68.7856 72.8702 65.4297Z" fill="#FFADAE"/>
<g opacity="0.25">
<path d="M71.6848 83.5159C71.3156 82.0101 71.0617 80.4807 70.8822 78.9445C70.7095 77.4084 70.6079 75.8621 70.6417 74.3158C70.6688 72.7695 70.8178 71.2232 71.1565 69.7141C71.4917 68.2049 72.0403 66.7363 72.8734 65.4297C72.0505 66.743 71.5188 68.215 71.1937 69.7208C70.8686 71.23 70.7332 72.7763 70.7196 74.3158C70.7027 75.8587 70.8144 77.4016 71.0007 78.931C71.1937 80.4604 71.4613 81.9831 71.8405 83.4754V83.4787C71.8507 83.5193 71.827 83.5632 71.783 83.5733C71.7389 83.5868 71.6949 83.5598 71.6848 83.5159Z" fill="white"/>
</g>
<path opacity="0.25" d="M73.3409 78.3338C73.5034 78.5127 72.8871 81.0584 72.5248 82.4966C71.8441 82.8511 71.1769 83.1313 70.6588 83.3305L70.2186 82.1826C70.2186 82.1826 69.6158 79.664 69.653 76.3047C70.3405 76.7132 71.3463 77.2298 72.2945 77.3918C72.5146 77.5809 73.1546 78.1245 73.3409 78.3338Z" fill="black"/>
<path d="M78.7899 71.1934C76.7173 74.8025 76.1213 77.3954 75.952 78.6716C75.8741 79.2557 75.8843 79.5595 75.8843 79.5595H75.1426L75.6337 80.0626L75.4 82.3415L75.2984 83.3375L74.0454 79.9849C74.0827 79.6912 74.1368 79.2996 74.2215 78.8472C74.3841 77.993 74.6516 76.9126 75.0952 75.8086C75.295 75.3055 75.5355 74.7991 75.8165 74.3062C76.5141 73.0806 77.4725 71.9429 78.7899 71.1934Z" fill="#F3475C"/>
<g opacity="0.25">
<path d="M74.4688 81.3388C74.4721 80.3833 74.5839 79.4447 74.7634 78.5129C74.9462 77.5845 75.2172 76.6729 75.5694 75.7951C75.9114 74.9139 76.3686 74.0766 76.9036 73.3001L77.3168 72.7261L77.7807 72.1893C77.8586 72.1016 77.9331 72.0104 78.0144 71.9226L78.2718 71.6795L78.7865 71.1934L78.2785 71.6863L78.0245 71.9327C77.9467 72.0205 77.8722 72.1117 77.7943 72.2028L77.3371 72.743L76.9307 73.3237C76.4092 74.107 75.9656 74.9443 75.6371 75.8255C75.2984 76.7033 75.0445 77.6115 74.8751 78.5366C74.7092 79.4583 74.611 80.4036 74.6211 81.3354V81.3388C74.6211 81.3827 74.5873 81.4164 74.5433 81.4164C74.4992 81.4164 74.4721 81.3827 74.4688 81.3388Z" fill="white"/>
</g>
<path opacity="0.25" d="M75.8876 79.5593H75.146L75.6371 80.0623L75.4034 82.3413L75.0072 82.5573L74.0454 79.9847C74.0827 79.691 74.1368 79.2993 74.2215 78.8469C74.611 78.9786 75.2408 79.0664 75.952 78.668C75.8741 79.2554 75.8876 79.5593 75.8876 79.5593Z" fill="black"/>
<path d="M85.9083 84.4808L81.7023 84.4842L63.4221 84.5011L57.9902 84.5078C57.9902 84.5078 58.4372 83.0493 60.5639 82.3808C62.6906 81.7123 63.3036 83.0966 63.3036 83.0966C63.3036 83.0966 63.1885 80.3247 65.7114 79.3693C68.2309 78.4172 69.3484 81.5976 69.3484 81.5976C69.3484 81.5976 69.8496 80.031 72.5351 79.896C75.2206 79.7609 74.9429 81.8508 74.9429 81.8508C74.9429 81.8508 76.4532 80.1559 79.1963 80.5442C81.9359 80.9291 82.217 83.0966 82.217 83.0966C82.217 83.0966 84.6214 82.3977 85.9083 84.4808Z" fill="#982245"/>
<path opacity="0.25" d="M81.702 84.4853L63.4219 84.5021C64.3701 83.6648 65.9109 82.5743 67.5568 82.5575C70.2422 82.5304 70.6757 83.4994 70.6757 83.4994C70.6757 83.4994 72.3317 81.7505 73.6355 82.0477C74.9426 82.3448 74.9968 83.7425 74.9968 83.7425C74.9968 83.7425 79.1723 82.7735 81.702 84.4853Z" fill="black"/>
<path d="M88.929 85.647C88.929 85.647 85.8879 80.2856 86.8023 75.0762C87.6963 79.1445 89.8806 81.8522 89.8806 81.8522L88.9866 82.5578H89.8806L91.7838 86.1737L89.2067 85.647V85.8935L88.929 85.647Z" fill="#2F1829"/>
</g>
<defs>
<linearGradient id="paint0_linear_711_24" x1="176.488" y1="19.3998" x2="176.711" y2="27.2095" gradientUnits="userSpaceOnUse">
<stop stop-color="#FEA948"/>
<stop offset="1" stop-color="#FFC584" stop-opacity="0"/>
</linearGradient>
<linearGradient id="paint1_linear_711_24" x1="43.9511" y1="12.5615" x2="44.6184" y2="29.7428" gradientUnits="userSpaceOnUse">
<stop stop-color="#FEA948"/>
<stop offset="1" stop-color="#FFC584" stop-opacity="0"/>
</linearGradient>
<linearGradient id="paint2_linear_711_24" x1="66.7112" y1="81.6938" x2="66.2662" y2="49.8601" gradientUnits="userSpaceOnUse">
<stop stop-color="#150F26"/>
<stop offset="1" stop-color="#3B223C"/>
</linearGradient>
<linearGradient id="paint3_linear_711_24" x1="109.152" y1="81.1002" x2="108.707" y2="49.2667" gradientUnits="userSpaceOnUse">
<stop stop-color="#150F26"/>
<stop offset="1" stop-color="#3B223C"/>
</linearGradient>
<linearGradient id="paint4_linear_711_24" x1="151.422" y1="80.5099" x2="150.977" y2="48.6765" gradientUnits="userSpaceOnUse">
<stop stop-color="#150F26"/>
<stop offset="1" stop-color="#3B223C"/>
</linearGradient>
<linearGradient id="paint5_linear_711_24" x1="95.0751" y1="24.5226" x2="98.8589" y2="36.5783" gradientUnits="userSpaceOnUse">
<stop stop-color="#2F1829"/>
<stop offset="1" stop-color="#3B223C"/>
</linearGradient>
<linearGradient id="paint6_linear_711_24" x1="192.001" y1="83.0508" x2="191.955" y2="80.4476" gradientUnits="userSpaceOnUse">
<stop stop-color="#FECBA6"/>
<stop offset="1" stop-color="#D17878"/>
</linearGradient>
<linearGradient id="paint7_linear_711_24" x1="179.283" y1="67.3719" x2="187.577" y2="59.4628" gradientUnits="userSpaceOnUse">
<stop stop-color="#FECBA6"/>
<stop offset="1" stop-color="#D17878"/>
</linearGradient>
<linearGradient id="paint8_linear_711_24" x1="192.477" y1="70.4393" x2="192.588" y2="61.4399" gradientUnits="userSpaceOnUse">
<stop stop-color="#FECBA6"/>
<stop offset="1" stop-color="#D17878"/>
</linearGradient>
<linearGradient id="paint9_linear_711_24" x1="186.942" y1="56.0681" x2="188.872" y2="56.4889" gradientUnits="userSpaceOnUse">
<stop stop-color="#FECBA6"/>
<stop offset="1" stop-color="#D17878"/>
</linearGradient>
<linearGradient id="paint10_linear_711_24" x1="186.304" y1="84.4677" x2="187.119" y2="80.5433" gradientUnits="userSpaceOnUse">
<stop stop-color="#FECBA6"/>
<stop offset="1" stop-color="#D17878"/>
</linearGradient>
<linearGradient id="paint11_linear_711_24" x1="32.2969" y1="55.0577" x2="31.648" y2="58.6471" gradientUnits="userSpaceOnUse">
<stop stop-color="#FECBA6"/>
<stop offset="1" stop-color="#D17878"/>
</linearGradient>
<linearGradient id="paint12_linear_711_24" x1="41.9751" y1="64.2143" x2="38.2" y2="65.2941" gradientUnits="userSpaceOnUse">
<stop stop-color="#FECBA6"/>
<stop offset="1" stop-color="#D17878"/>
</linearGradient>
<clipPath id="clip0_711_24">
<rect width="215" height="109" fill="white"/>
</clipPath>
</defs>
</svg>
