<svg width="20" height="20" viewBox="0 0 20 20" fill="none" xmlns="http://www.w3.org/2000/svg">
<g clip-path="url(#clip0_459_166)">
<path d="M17.8447 5.55469H2.15577C1.87877 5.55469 1.61311 5.66473 1.41724 5.8606C1.22137 6.05647 1.11133 6.32213 1.11133 6.59913V16.7325C1.11133 17.0095 1.22137 17.2751 1.41724 17.471C1.61311 17.6669 1.87877 17.7769 2.15577 17.7769H17.8447C18.1217 17.7769 18.3873 17.6669 18.5832 17.471C18.7791 17.2751 18.8891 17.0095 18.8891 16.7325V6.59913C18.8891 6.32213 18.7791 6.05647 18.5832 5.8606C18.3873 5.66473 18.1217 5.55469 17.8447 5.55469ZM17.778 16.6658H2.22244V6.6658H17.778V16.6658Z" fill="white"/>
<path d="M4.75553 10.806C5.08517 10.806 5.4074 10.7082 5.68148 10.5251C5.95557 10.342 6.16919 10.0817 6.29533 9.77713C6.42148 9.47259 6.45448 9.13748 6.39018 8.81417C6.32587 8.49087 6.16713 8.1939 5.93405 7.96081C5.70096 7.72773 5.40399 7.56899 5.08068 7.50468C4.75738 7.44037 4.42227 7.47338 4.11773 7.59952C3.81318 7.72567 3.55289 7.93929 3.36975 8.21337C3.18662 8.48746 3.08887 8.80969 3.08887 9.13932C3.08887 9.58135 3.26446 10.0053 3.57702 10.3178C3.88958 10.6304 4.31351 10.806 4.75553 10.806ZM4.75553 8.25044C4.93222 8.24602 5.10621 8.29437 5.25528 8.38932C5.40435 8.48426 5.52173 8.6215 5.59243 8.78348C5.66313 8.94546 5.68393 9.12485 5.65219 9.29871C5.62044 9.47258 5.53758 9.63303 5.4142 9.75958C5.29082 9.88613 5.13251 9.97302 4.95951 10.0092C4.7865 10.0453 4.60665 10.029 4.44293 9.96246C4.2792 9.89589 4.13905 9.78201 4.04035 9.6354C3.94166 9.48878 3.88892 9.31606 3.88887 9.13932C3.88879 8.90738 3.97939 8.68459 4.14131 8.51851C4.30323 8.35244 4.52366 8.25623 4.75553 8.25044Z" fill="white"/>
<path d="M4.38906 15.5558L7.7224 12.2225L9.48906 13.9891L7.9224 15.5558H9.03351L13.178 11.4114L16.6668 14.8725V13.7614L13.4446 10.5558C13.3707 10.4825 13.2709 10.4414 13.1668 10.4414C13.0628 10.4414 12.9629 10.4825 12.8891 10.5558L10.0224 13.4225L7.98351 11.3891C7.90963 11.3159 7.80979 11.2747 7.70573 11.2747C7.60167 11.2747 7.50183 11.3159 7.42795 11.3891L3.28906 15.5558H4.38906Z" fill="white"/>
<path d="M16.7445 1.66688C16.7445 1.51954 16.6859 1.37823 16.5817 1.27405C16.4776 1.16986 16.3363 1.11133 16.1889 1.11133H3.96669C3.81935 1.11133 3.67804 1.16986 3.57385 1.27405C3.46966 1.37823 3.41113 1.51954 3.41113 1.66688V2.22244H16.7445V1.66688Z" fill="white"/>
<path d="M17.8446 3.88954C17.8446 3.7422 17.7861 3.60089 17.6819 3.4967C17.5777 3.39252 17.4364 3.33398 17.2891 3.33398H2.84462C2.69728 3.33398 2.55597 3.39252 2.45178 3.4967C2.34759 3.60089 2.28906 3.7422 2.28906 3.88954V4.4451H17.8446V3.88954Z" fill="white"/>
</g>
<defs>
<clipPath id="clip0_459_166">
<rect width="20" height="20" fill="white"/>
</clipPath>
</defs>
</svg>
