<svg width="512" height="512" viewBox="0 0 512 512" fill="none" xmlns="http://www.w3.org/2000/svg">
<g clip-path="url(#clip0_931_113)">
<path d="M392 0H120C53.7258 0 0 53.7258 0 120V392C0 458.274 53.7258 512 120 512H392C458.274 512 512 458.274 512 392V120C512 53.7258 458.274 0 392 0Z" fill="#26232F"/>
<path opacity="0.9" fill-rule="evenodd" clip-rule="evenodd" d="M76.0158 196.446L331.827 155.929C335.459 155.354 339.168 155.499 342.744 156.358C346.319 157.216 349.69 158.77 352.665 160.931C355.64 163.093 358.16 165.819 360.081 168.954C362.003 172.089 363.288 175.572 363.863 179.204L387.172 326.37C388.333 333.704 386.534 341.199 382.17 347.207C377.806 353.214 371.234 357.242 363.9 358.405L108.086 398.922C104.454 399.497 100.744 399.351 97.169 398.493C93.5935 397.635 90.2221 396.081 87.2473 393.919C84.2725 391.758 81.7525 389.032 79.8312 385.897C77.9099 382.762 76.625 379.279 76.0498 375.647L52.7408 228.481C51.5792 221.146 53.3788 213.651 57.7437 207.643C62.1086 201.635 68.6812 197.608 76.0158 196.446V196.446Z" fill="#F3365A"/>
<path fill-rule="evenodd" clip-rule="evenodd" d="M201.343 150.599L413.223 237.477C420.094 240.294 425.564 245.725 428.431 252.576C431.297 259.426 431.325 267.135 428.508 274.006L369.324 418.342C366.506 425.212 361.076 430.681 354.227 433.547C347.377 436.413 339.67 436.442 332.8 433.626L163.16 364.07C138.323 353.886 123.915 346.748 123.915 346.748C109.607 340.881 101.764 327.526 107.631 313.218C107.631 313.218 111.145 305.085 115.138 295.348C130.515 257.848 165.814 167.881 165.814 167.881C171.681 153.573 187.035 144.73 201.343 150.599Z" fill="#3CED2E"/>
<path fill-rule="evenodd" clip-rule="evenodd" d="M89.2997 210.693L306.021 70.7083C312.259 66.6792 319.842 65.2931 327.101 66.8549C334.361 68.4167 340.704 72.7985 344.733 79.0363L448.365 239.477C450.36 242.566 451.727 246.018 452.388 249.635C453.05 253.252 452.992 256.964 452.219 260.559C451.445 264.153 449.971 267.561 447.881 270.586C445.791 273.611 443.126 276.195 440.037 278.19L223.316 418.174C217.078 422.203 209.495 423.59 202.235 422.028C194.975 420.466 188.633 416.084 184.604 409.846C184.604 409.846 158.4 369.273 132.34 328.933L80.9707 249.405C76.9417 243.167 75.5557 235.584 77.1177 228.324C78.6797 221.064 83.0617 214.722 89.2997 210.693V210.693Z" fill="#504081"/>
<path opacity="0.9" fill-rule="evenodd" clip-rule="evenodd" d="M159 184L246 170L371 220L385 314L302 368L209 383L152 360L111 296L159 184Z" fill="white"/>
<path fill-rule="evenodd" clip-rule="evenodd" d="M171 389L210 383L152 359L171 389Z" fill="#F3C6FF"/>
<path fill-rule="evenodd" clip-rule="evenodd" d="M166.814 164.656C172.681 151.356 187.035 144.995 201.343 150.448L246 169.999L159 183.999L166.814 164.656Z" fill="#8571C0"/>
<path fill-rule="evenodd" clip-rule="evenodd" d="M245 169.999C291.762 162.747 331.827 155.922 331.827 155.922C347.101 153.553 361.444 163.756 363.863 178.711C363.863 178.711 366.663 198.002 370.316 220.604C370.508 220.584 247.621 173.237 245 169.999Z" fill="#F3C6FF"/>
<path fill-rule="evenodd" clip-rule="evenodd" d="M209 383L251 400L302 368L209 383Z" fill="#8571C0"/>
<path fill-rule="evenodd" clip-rule="evenodd" d="M301.137 367.908L363.897 358.048C367.515 357.497 370.988 356.236 374.117 354.339C377.247 352.442 379.971 349.945 382.133 346.993C384.296 344.04 385.854 340.69 386.719 337.134C387.583 333.578 387.737 329.886 387.172 326.27C387.172 326.27 386.424 321.588 385.197 313.901C384.943 313.709 340.148 342.177 301.137 367.908Z" fill="#FFF635"/>
<path fill-rule="evenodd" clip-rule="evenodd" d="M153.028 360.162C142.006 356.383 131.273 351.809 120.915 346.474C106.435 341.326 99.7638 324.374 105.631 310.143C105.631 310.143 107.817 304.79 111.391 296.17C128.318 321.921 142.691 342.78 153.028 360.162Z" fill="#FFF635"/>
<path fill-rule="evenodd" clip-rule="evenodd" d="M370.085 219.787L413.223 237.433C416.622 238.819 419.715 240.862 422.323 243.445C424.932 246.027 427.006 249.099 428.425 252.484C429.845 255.87 430.583 259.502 430.597 263.173C430.612 266.843 429.902 270.481 428.508 273.877L422 289.834L385 313.78C385 313.78 377.463 266.989 370.085 219.787Z" fill="#8571C0"/>
<path fill-rule="evenodd" clip-rule="evenodd" d="M111.132 297.007C94.162 270.757 80.971 249.352 80.971 249.352C78.9761 246.266 77.6091 242.817 76.948 239.202C76.2869 235.588 76.3447 231.878 77.1181 228.286C77.8916 224.694 79.3655 221.289 81.4555 218.267C83.5456 215.244 86.2109 212.664 89.299 210.672C89.299 210.672 102.7 202.1 123 189C123.187 189.082 159 184 159 184C159 184 158.5 184.8 111.132 297.007Z" fill="#F3C6FF"/>
<g filter="url(#filter0_d_931_113)">
<circle cx="256" cy="278" r="80" fill="white"/>
</g>
<circle cx="256" cy="278" r="70" fill="url(#paint0_linear_931_113)"/>
<circle cx="256" cy="278" r="70" stroke="white"/>
<g filter="url(#filter1_f_931_113)">
<circle cx="256" cy="278" r="48" fill="url(#paint1_linear_931_113)"/>
</g>
<ellipse cx="290.428" cy="244.084" rx="16.0177" ry="10.4349" transform="rotate(42.435 290.428 244.084)" fill="white"/>
</g>
<defs>
<filter id="filter0_d_931_113" x="156" y="188" width="200" height="200" filterUnits="userSpaceOnUse" color-interpolation-filters="sRGB">
<feFlood flood-opacity="0" result="BackgroundImageFix"/>
<feColorMatrix in="SourceAlpha" type="matrix" values="0 0 0 0 0 0 0 0 0 0 0 0 0 0 0 0 0 0 127 0" result="hardAlpha"/>
<feOffset dy="10"/>
<feGaussianBlur stdDeviation="10"/>
<feComposite in2="hardAlpha" operator="out"/>
<feColorMatrix type="matrix" values="0 0 0 0 0 0 0 0 0 0 0 0 0 0 0 0 0 0 0.28 0"/>
<feBlend mode="normal" in2="BackgroundImageFix" result="effect1_dropShadow_931_113"/>
<feBlend mode="normal" in="SourceGraphic" in2="effect1_dropShadow_931_113" result="shape"/>
</filter>
<filter id="filter1_f_931_113" x="154" y="176" width="204" height="204" filterUnits="userSpaceOnUse" color-interpolation-filters="sRGB">
<feFlood flood-opacity="0" result="BackgroundImageFix"/>
<feBlend mode="normal" in="SourceGraphic" in2="BackgroundImageFix" result="shape"/>
<feGaussianBlur stdDeviation="27" result="effect1_foregroundBlur_931_113"/>
</filter>
<linearGradient id="paint0_linear_931_113" x1="209" y1="221" x2="305" y2="339.5" gradientUnits="userSpaceOnUse">
<stop stop-color="#FEC80F"/>
<stop offset="0.173481" stop-color="#FE9013"/>
<stop offset="0.349713" stop-color="#CD3635"/>
<stop offset="0.597173" stop-color="#61204B"/>
<stop offset="0.807292" stop-color="#24436F"/>
<stop offset="1" stop-color="#567957"/>
</linearGradient>
<linearGradient id="paint1_linear_931_113" x1="225.5" y1="249.5" x2="287.5" y2="313.5" gradientUnits="userSpaceOnUse">
<stop stop-color="#FEC80F"/>
<stop offset="0.1875" stop-color="#E68E0F"/>
<stop offset="0.385417" stop-color="#CD3635"/>
<stop offset="0.609375" stop-color="#61204B"/>
<stop offset="0.807292" stop-color="#24436F"/>
<stop offset="1" stop-color="#567957"/>
</linearGradient>
<clipPath id="clip0_931_113">
<rect width="512" height="512" fill="white"/>
</clipPath>
</defs>
</svg>
