<svg width="56" height="56" viewBox="0 0 56 56" fill="none" xmlns="http://www.w3.org/2000/svg">
<circle cx="28" cy="28" r="28" fill="#3B3943"/>
<path d="M34 32.08C33.24 32.08 32.56 32.38 32.04 32.85L24.91 28.7C24.96 28.47 25 28.24 25 28C25 27.76 24.96 27.53 24.91 27.3L31.96 23.19C32.5 23.69 33.21 24 34 24C35.66 24 37 22.66 37 21C37 19.34 35.66 18 34 18C32.34 18 31 19.34 31 21C31 21.24 31.04 21.47 31.09 21.7L24.04 25.81C23.5 25.31 22.79 25 22 25C20.34 25 19 26.34 19 28C19 29.66 20.34 31 22 31C22.79 31 23.5 30.69 24.04 30.19L31.16 34.35C31.11 34.56 31.08 34.78 31.08 35C31.08 36.61 32.39 37.92 34 37.92C35.61 37.92 36.92 36.61 36.92 35C36.92 33.39 35.61 32.08 34 32.08ZM34 20C34.55 20 35 20.45 35 21C35 21.55 34.55 22 34 22C33.45 22 33 21.55 33 21C33 20.45 33.45 20 34 20ZM22 29C21.45 29 21 28.55 21 28C21 27.45 21.45 27 22 27C22.55 27 23 27.45 23 28C23 28.55 22.55 29 22 29ZM34 36.02C33.45 36.02 33 35.57 33 35.02C33 34.47 33.45 34.02 34 34.02C34.55 34.02 35 34.47 35 35.02C35 35.57 34.55 36.02 34 36.02Z" fill="white"/>
</svg>
