<svg width="56" height="56" viewBox="0 0 56 56" fill="none" xmlns="http://www.w3.org/2000/svg">
<circle cx="28" cy="28" r="28" fill="#3B3943"/>
<path d="M35.0498 20.9101C34.133 19.984 33.041 19.2497 31.8374 18.7501C30.6339 18.2505 29.3429 17.9955 28.0398 18.0001C22.5798 18.0001 18.1298 22.4501 18.1298 27.9101C18.1298 29.6601 18.5898 31.3601 19.4498 32.8601L18.0498 38.0001L23.2998 36.6201C24.7498 37.4101 26.3798 37.8301 28.0398 37.8301C33.4998 37.8301 37.9498 33.3801 37.9498 27.9201C37.9498 25.2701 36.9198 22.7801 35.0498 20.9101ZM28.0398 36.1501C26.5598 36.1501 25.1098 35.7501 23.8398 35.0001L23.5398 34.8201L20.4198 35.6401L21.2498 32.6001L21.0498 32.2901C20.2276 30.977 19.7909 29.4593 19.7898 27.9101C19.7898 23.3701 23.4898 19.6701 28.0298 19.6701C30.2298 19.6701 32.2998 20.5301 33.8498 22.0901C34.6173 22.854 35.2255 23.7627 35.6392 24.7635C36.0529 25.7642 36.2638 26.8372 36.2598 27.9201C36.2798 32.4601 32.5798 36.1501 28.0398 36.1501ZM32.5598 29.9901C32.3098 29.8701 31.0898 29.2701 30.8698 29.1801C30.6398 29.1001 30.4798 29.0601 30.3098 29.3001C30.1398 29.5501 29.6698 30.1101 29.5298 30.2701C29.3898 30.4401 29.2398 30.4601 28.9898 30.3301C28.7398 30.2101 27.9398 29.9401 26.9998 29.1001C26.2598 28.4401 25.7698 27.6301 25.6198 27.3801C25.4798 27.1301 25.5998 27.0001 25.7298 26.8701C25.8398 26.7601 25.9798 26.5801 26.0998 26.4401C26.2198 26.3001 26.2698 26.1901 26.3498 26.0301C26.4298 25.8601 26.3898 25.7201 26.3298 25.6001C26.2698 25.4801 25.7698 24.2601 25.5698 23.7601C25.3698 23.2801 25.1598 23.3401 25.0098 23.3301H24.5298C24.3598 23.3301 24.0998 23.3901 23.8698 23.6401C23.6498 23.8901 23.0098 24.4901 23.0098 25.7101C23.0098 26.9301 23.8998 28.1101 24.0198 28.2701C24.1398 28.4401 25.7698 30.9401 28.2498 32.0101C28.8398 32.2701 29.2998 32.4201 29.6598 32.5301C30.2498 32.7201 30.7898 32.6901 31.2198 32.6301C31.6998 32.5601 32.6898 32.0301 32.8898 31.4501C33.0998 30.8701 33.0998 30.3801 33.0298 30.2701C32.9598 30.1601 32.8098 30.1101 32.5598 29.9901Z" fill="white"/>
</svg>
